<svg width="127" height="24" viewBox="0 0 127 24" fill="none" xmlns="http://www.w3.org/2000/svg">
<path d="M5.304 23.82C3.59733 23.82 2.296 23.34 1.4 22.38C0.504 21.3987 0.056 20.0013 0.056 18.188V6.412C0.056 4.59867 0.504 3.212 1.4 2.252C2.296 1.27067 3.59733 0.779999 5.304 0.779999C7.01067 0.779999 8.312 1.27067 9.208 2.252C10.104 3.212 10.552 4.59867 10.552 6.412V8.332H7.224V6.188C7.224 4.716 6.616 3.98 5.4 3.98C4.184 3.98 3.576 4.716 3.576 6.188V18.444C3.576 19.8947 4.184 20.62 5.4 20.62C6.616 20.62 7.224 19.8947 7.224 18.444V14.06H5.464V10.86H10.552V18.188C10.552 20.0013 10.104 21.3987 9.208 22.38C8.312 23.34 7.01067 23.82 5.304 23.82ZM17.9 23.82C16.172 23.82 14.8493 23.3293 13.932 22.348C13.0147 21.3667 12.556 19.98 12.556 18.188V6.412C12.556 4.62 13.0147 3.23333 13.932 2.252C14.8493 1.27067 16.172 0.779999 17.9 0.779999C19.628 0.779999 20.9507 1.27067 21.868 2.252C22.7853 3.23333 23.244 4.62 23.244 6.412V18.188C23.244 19.98 22.7853 21.3667 21.868 22.348C20.9507 23.3293 19.628 23.82 17.9 23.82ZM17.9 20.62C19.116 20.62 19.724 19.884 19.724 18.412V6.188C19.724 4.716 19.116 3.98 17.9 3.98C16.684 3.98 16.076 4.716 16.076 6.188V18.412C16.076 19.884 16.684 20.62 17.9 20.62ZM30.7125 23.82C28.9845 23.82 27.6618 23.3293 26.7445 22.348C25.8272 21.3667 25.3685 19.98 25.3685 18.188V6.412C25.3685 4.62 25.8272 3.23333 26.7445 2.252C27.6618 1.27067 28.9845 0.779999 30.7125 0.779999C32.4405 0.779999 33.7632 1.27067 34.6805 2.252C35.5978 3.23333 36.0565 4.62 36.0565 6.412V18.188C36.0565 19.98 35.5978 21.3667 34.6805 22.348C33.7632 23.3293 32.4405 23.82 30.7125 23.82ZM30.7125 20.62C31.9285 20.62 32.5365 19.884 32.5365 18.412V6.188C32.5365 4.716 31.9285 3.98 30.7125 3.98C29.4965 3.98 28.8885 4.716 28.8885 6.188V18.412C28.8885 19.884 29.4965 20.62 30.7125 20.62ZM38.437 1.1H43.813C45.5623 1.1 46.8743 1.56933 47.749 2.508C48.6237 3.44667 49.061 4.82267 49.061 6.636V17.964C49.061 19.7773 48.6237 21.1533 47.749 22.092C46.8743 23.0307 45.5623 23.5 43.813 23.5H38.437V1.1ZM43.749 20.3C44.325 20.3 44.7623 20.1293 45.061 19.788C45.381 19.4467 45.541 18.892 45.541 18.124V6.476C45.541 5.708 45.381 5.15333 45.061 4.812C44.7623 4.47067 44.325 4.3 43.749 4.3H41.957V20.3H43.749Z" fill="white"/>
<path d="M54.189 4.3H50.509V1.1H61.389V4.3H57.709V23.5H54.189V4.3ZM63.0933 1.1H68.3093C70.1226 1.1 71.4453 1.52667 72.2773 2.38C73.1093 3.212 73.5253 4.50267 73.5253 6.252V7.628C73.5253 9.95333 72.7573 11.4253 71.2213 12.044V12.108C72.0746 12.364 72.6719 12.8867 73.0133 13.676C73.3759 14.4653 73.5573 15.5213 73.5573 16.844V20.78C73.5573 21.42 73.5786 21.9427 73.6213 22.348C73.6639 22.732 73.7706 23.116 73.9413 23.5H70.3573C70.2293 23.1373 70.1439 22.796 70.1013 22.476C70.0586 22.156 70.0373 21.58 70.0373 20.748V16.652C70.0373 15.628 69.8666 14.9133 69.5253 14.508C69.2053 14.1027 68.6399 13.9 67.8293 13.9H66.6133V23.5H63.0933V1.1ZM67.8933 10.7C68.5973 10.7 69.1199 10.5187 69.4613 10.156C69.8239 9.79333 70.0052 9.18533 70.0052 8.332V6.604C70.0052 5.79333 69.8559 5.20667 69.5573 4.844C69.2799 4.48133 68.8319 4.3 68.2133 4.3H66.6133V10.7H67.8933ZM78.7195 1.1H83.4875L87.1355 23.5H83.6155L82.9755 19.052V19.116H78.9755L78.3355 23.5H75.0715L78.7195 1.1ZM82.5595 16.076L80.9915 5.004H80.9275L79.3915 16.076H82.5595ZM87.009 1.1H90.561L92.865 18.476H92.929L95.233 1.1H98.465L95.073 23.5H90.401L87.009 1.1ZM100.156 1.1H109.756V4.3H103.676V10.22H108.508V13.42H103.676V20.3H109.756V23.5H100.156V1.1ZM111.781 1.1H115.301V20.3H121.093V23.5H111.781V1.1Z" fill="#19DACE"/>
<path d="M122.781 20.108H126.173V23.5H122.781V20.108Z" fill="#19DACE"/>
</svg>
